<svg width="48" height="33" viewBox="0 0 48 33" fill="none" xmlns="http://www.w3.org/2000/svg">
<path fill-rule="evenodd" clip-rule="evenodd" d="M19.044 21.9819L19.0425 9.15152L32.0115 15.5888L19.044 21.9819ZM47.52 6.92822C47.52 6.92822 47.0505 3.78163 45.612 2.39599C43.7865 0.576529 41.7405 0.56795 40.803 0.46235C34.086 -6.70035e-06 24.0105 0 24.0105 0H23.9895C23.9895 0 13.914 -6.70035e-06 7.19701 0.46235C6.25801 0.56795 4.21351 0.576529 2.38651 2.39599C0.948005 3.78163 0.479996 6.92822 0.479996 6.92822C0.479996 6.92822 0 10.6242 0 14.3188V17.7836C0 21.4796 0.479996 25.1742 0.479996 25.1742C0.479996 25.1742 0.948005 28.3208 2.38651 29.7064C4.21351 31.5259 6.61199 31.4688 7.67999 31.6586C11.52 32.0096 24 32.1181 24 32.1181C24 32.1181 34.086 32.1038 40.803 31.6415C41.7405 31.5344 43.7865 31.5259 45.612 29.7064C47.0505 28.3208 47.52 25.1742 47.52 25.1742C47.52 25.1742 48 21.4796 48 17.7836V14.3188C48 10.6242 47.52 6.92822 47.52 6.92822Z" fill="#CE1312"/>
</svg>
