<svg width="48" height="46" viewBox="0 0 48 46" fill="none" xmlns="http://www.w3.org/2000/svg">
<path fill-rule="evenodd" clip-rule="evenodd" d="M38.16 20.1777C30.48 15.8701 17.64 15.4167 10.32 17.5705C9.12001 17.9106 7.92 17.2304 7.56 16.2102C7.2 15.0766 7.92 13.943 9 13.6029C17.52 11.2224 31.56 11.6759 40.44 16.6636C41.52 17.2304 41.88 18.5907 41.28 19.6109C40.68 20.4044 39.24 20.7445 38.16 20.1777ZM37.92 26.5257C37.32 27.3193 36.24 27.6593 35.4 27.0925C28.92 23.3517 19.08 22.2182 11.52 24.4853C10.56 24.712 9.48001 24.2586 9.24001 23.3517C9.00001 22.4449 9.48 21.4247 10.44 21.1979C19.2 18.7041 30 19.951 37.44 24.2586C38.16 24.5987 38.52 25.7322 37.92 26.5257ZM35.04 32.7604C34.56 33.4406 33.72 33.6673 33 33.2139C27.36 29.9265 20.28 29.2464 11.88 31.0601C11.04 31.2868 10.32 30.72 10.08 30.0398C9.84 29.2463 10.44 28.5662 11.16 28.3395C20.28 26.4124 28.2 27.2059 34.44 30.8334C35.28 31.1734 35.4 32.0803 35.04 32.7604ZM24 0C10.8 0 0 10.2022 0 22.6716C0 35.141 10.8 45.3432 24 45.3432C37.2 45.3432 48 35.141 48 22.6716C48 10.2022 37.32 0 24 0Z" fill="#00DA5A"/>
</svg>
