<svg width="48" height="48" viewBox="0 0 48 48" fill="none" xmlns="http://www.w3.org/2000/svg">
<path d="M2.73969 0H45.2603C46.7016 0 48 1.29836 48 2.7397V45.2603C48 46.7016 46.7016 48 45.2603 48H2.73969C1.29836 48 0 46.7016 0 45.2603V2.7397C0 1.29836 1.29836 0 2.73969 0ZM34.0871 26.9519H40.7172L41.0055 20.61H34.0871V15.9262C34.0871 14.1251 34.4468 13.115 36.753 13.115H40.7887L40.934 7.20438C40.934 7.20438 39.1329 6.91612 36.5385 6.91612C30.1966 6.91612 27.3854 10.8804 27.3854 15.1329V20.61H22.7016V26.9519H27.3854V44.5362H34.0871V26.9519Z" fill="#B33B3B"/>
</svg>
