<svg width="33" height="33" viewBox="0 0 33 33" fill="none" xmlns="http://www.w3.org/2000/svg">
<g clip-path="url(#clip0_618_1661)">
<path d="M16 27.76C9.49725 27.76 4.24 22.5027 4.24 16C4.24 9.49725 9.49725 4.24 16 4.24C22.5027 4.24 27.76 9.49725 27.76 16C27.76 22.5027 22.5027 27.76 16 27.76ZM16 5.17176C10.0086 5.17176 5.17176 10.0086 5.17176 16C5.17176 21.9914 10.0086 26.8282 16 26.8282C21.9914 26.8282 26.8282 21.9914 26.8282 16C26.8282 10.0086 21.9914 5.17176 16 5.17176Z" fill="#B33B3B" stroke="#B33B3B" stroke-width="0.48"/>
<mask id="path-2-inside-1_618_1661" fill="white">
<path d="M20.9646 20.4341C21.0015 20.4685 21.031 20.5099 21.0515 20.5559C21.072 20.6019 21.083 20.6515 21.0839 20.7019C21.0848 20.7522 21.0756 20.8022 21.0567 20.8489C21.0378 20.8956 21.0098 20.9381 20.9741 20.9737C20.9385 21.0093 20.8961 21.0373 20.8494 21.0562C20.8027 21.0751 20.7527 21.0843 20.7024 21.0834C20.652 21.0826 20.6024 21.0715 20.5564 21.051C20.5104 21.0305 20.469 21.001 20.4346 20.9641L16.1996 16.7298L11.9646 20.9641C11.8935 21.0304 11.7995 21.0664 11.7024 21.0647C11.6052 21.063 11.5125 21.0237 11.4438 20.955C11.3751 20.8862 11.3358 20.7936 11.334 20.6964C11.3323 20.5993 11.3684 20.5052 11.4346 20.4341L15.669 16.1991L11.4346 11.9641C11.3684 11.8931 11.3323 11.799 11.334 11.7019C11.3358 11.6047 11.3751 11.512 11.4438 11.4433C11.5125 11.3746 11.6052 11.3353 11.7024 11.3336C11.7995 11.3318 11.8935 11.3679 11.9646 11.4341L16.1996 15.6685L20.4346 11.4341C20.5057 11.3679 20.5997 11.3318 20.6969 11.3336C20.794 11.3353 20.8867 11.3746 20.9554 11.4433C21.0241 11.512 21.0635 11.6047 21.0652 11.7019C21.0669 11.799 21.0309 11.8931 20.9646 11.9641L16.7303 16.1991L20.9646 20.4341Z"/>
</mask>
<path d="M20.9646 20.4341C21.0015 20.4685 21.031 20.5099 21.0515 20.5559C21.072 20.6019 21.083 20.6515 21.0839 20.7019C21.0848 20.7522 21.0756 20.8022 21.0567 20.8489C21.0378 20.8956 21.0098 20.9381 20.9741 20.9737C20.9385 21.0093 20.8961 21.0373 20.8494 21.0562C20.8027 21.0751 20.7527 21.0843 20.7024 21.0834C20.652 21.0826 20.6024 21.0715 20.5564 21.051C20.5104 21.0305 20.469 21.001 20.4346 20.9641L16.1996 16.7298L11.9646 20.9641C11.8935 21.0304 11.7995 21.0664 11.7024 21.0647C11.6052 21.063 11.5125 21.0237 11.4438 20.955C11.3751 20.8862 11.3358 20.7936 11.334 20.6964C11.3323 20.5993 11.3684 20.5052 11.4346 20.4341L15.669 16.1991L11.4346 11.9641C11.3684 11.8931 11.3323 11.799 11.334 11.7019C11.3358 11.6047 11.3751 11.512 11.4438 11.4433C11.5125 11.3746 11.6052 11.3353 11.7024 11.3336C11.7995 11.3318 11.8935 11.3679 11.9646 11.4341L16.1996 15.6685L20.4346 11.4341C20.5057 11.3679 20.5997 11.3318 20.6969 11.3336C20.794 11.3353 20.8867 11.3746 20.9554 11.4433C21.0241 11.512 21.0635 11.6047 21.0652 11.7019C21.0669 11.799 21.0309 11.8931 20.9646 11.9641L16.7303 16.1991L20.9646 20.4341Z" fill="#B33B3B"/>
<path d="M20.9646 20.4341L13.893 27.5047L14.0181 27.6297L14.1474 27.7503L20.9646 20.4341ZM20.4346 20.9641L27.7507 14.1469L27.6302 14.0176L27.5052 13.8926L20.4346 20.9641ZM16.1996 16.7298L23.2702 9.65818L16.1996 2.58867L9.12908 9.65818L16.1996 16.7298ZM11.9646 20.9641L18.7819 28.2803L18.9107 28.1602L19.0352 28.0357L11.9646 20.9641ZM11.4346 20.4341L4.36304 13.3636L4.23855 13.4881L4.11852 13.6169L11.4346 20.4341ZM15.669 16.1991L22.7406 23.2697L29.8101 16.1991L22.7406 9.1286L15.669 16.1991ZM11.4346 11.9641L4.11852 18.7814L4.23855 18.9102L4.36304 19.0347L11.4346 11.9641ZM11.9646 11.4341L19.0352 4.36255L18.9107 4.23806L18.7819 4.11803L11.9646 11.4341ZM16.1996 15.6685L9.12908 22.7401L16.1996 29.8096L23.2702 22.7401L16.1996 15.6685ZM20.4346 11.4341L13.6174 4.11803L13.4886 4.23806L13.3641 4.36255L20.4346 11.4341ZM20.9646 11.9641L28.0362 19.0347L28.1607 18.9102L28.2807 18.7814L20.9646 11.9641ZM16.7303 16.1991L9.65867 9.1286L2.58916 16.1991L9.65867 23.2697L16.7303 16.1991ZM14.1474 27.7503C13.2017 26.8691 12.4433 25.8064 11.9172 24.6258L30.1858 16.4859C29.6188 15.2133 28.8012 14.0679 27.7819 13.118L14.1474 27.7503ZM11.9172 24.6258C11.3911 23.4451 11.1083 22.1706 11.0855 20.8783L31.0824 20.5255C31.0578 19.1324 30.7529 17.7586 30.1858 16.4859L11.9172 24.6258ZM11.0855 20.8783C11.0627 19.5859 11.3004 18.3022 11.7845 17.1038L30.3289 24.5941C30.8507 23.3023 31.1069 21.9185 31.0824 20.5255L11.0855 20.8783ZM11.7845 17.1038C12.2686 15.9052 12.9891 14.8165 13.9031 13.9026L28.0452 28.0447C29.0304 27.0596 29.8071 25.886 30.3289 24.5941L11.7845 17.1038ZM13.9031 13.9026C14.817 12.9886 15.9057 12.2681 17.1042 11.784L24.5946 30.3284C25.8865 29.8066 27.0601 29.0299 28.0452 28.0447L13.9031 13.9026ZM17.1042 11.784C18.3027 11.2999 19.5864 11.0622 20.8788 11.085L20.526 31.0819C21.919 31.1065 23.3028 30.8502 24.5946 30.3284L17.1042 11.784ZM20.8788 11.085C22.1711 11.1078 23.4456 11.3907 24.6263 11.9167L16.4864 30.1853C17.7591 30.7524 19.1329 31.0573 20.526 31.0819L20.8788 11.085ZM24.6263 11.9167C25.8069 12.4428 26.8695 13.2012 27.7507 14.1469L13.1185 27.7814C14.0684 28.8007 15.2138 29.6183 16.4864 30.1853L24.6263 11.9167ZM27.5052 13.8926L23.2702 9.65818L9.12908 23.8014L13.3641 28.0357L27.5052 13.8926ZM9.12908 9.65818L4.89408 13.8926L19.0352 28.0357L23.2702 23.8014L9.12908 9.65818ZM5.14741 13.648C6.97204 11.9478 9.38532 11.0223 11.8788 11.0663L11.526 31.0632C14.2137 31.1106 16.815 30.1129 18.7819 28.2803L5.14741 13.648ZM11.8788 11.0663C14.3723 11.1103 16.7514 12.1204 18.5149 13.8839L4.37275 28.026C6.27365 29.9269 8.83816 31.0158 11.526 31.0632L11.8788 11.0663ZM18.5149 13.8839C20.2784 15.6474 21.2885 18.0265 21.3325 20.52L1.3356 20.8728C1.38302 23.5606 2.47186 26.1251 4.37275 28.026L18.5149 13.8839ZM21.3325 20.52C21.3765 23.0135 20.4509 25.4268 18.7507 27.2514L4.11852 13.6169C2.28588 15.5837 1.28818 18.185 1.3356 20.8728L21.3325 20.52ZM18.5062 27.5047L22.7406 23.2697L8.59742 9.1286L4.36304 13.3636L18.5062 27.5047ZM22.7406 9.1286L18.5062 4.8936L4.36304 19.0347L8.59742 23.2697L22.7406 9.1286ZM18.7507 5.14692C20.4509 6.97151 21.3765 9.38477 21.3325 11.8783L1.3356 11.5255C1.28818 14.2133 2.28587 16.8146 4.11852 18.7814L18.7507 5.14692ZM21.3325 11.8783C21.2885 14.3718 20.2784 16.7509 18.5149 18.5144L4.37275 4.37226C2.47187 6.27315 1.38302 8.83765 1.3356 11.5255L21.3325 11.8783ZM18.5149 18.5144C16.7514 20.2779 14.3723 21.288 11.8788 21.332L11.526 1.33511C8.83813 1.38253 6.27364 2.47138 4.37275 4.37226L18.5149 18.5144ZM11.8788 21.332C9.38526 21.376 6.972 20.4504 5.14741 18.7503L18.7819 4.11803C16.8151 2.28538 14.2138 1.28769 11.526 1.33511L11.8788 21.332ZM4.89408 18.5057L9.12908 22.7401L23.2702 8.59693L19.0352 4.36255L4.89408 18.5057ZM23.2702 22.7401L27.5052 18.5057L13.3641 4.36255L9.12908 8.59693L23.2702 22.7401ZM27.2519 18.7503C25.4273 20.4504 23.014 21.376 20.5205 21.332L20.8733 1.33511C18.1855 1.28769 15.5842 2.28539 13.6174 4.11803L27.2519 18.7503ZM20.5205 21.332C18.027 21.288 15.6479 20.2779 13.8844 18.5144L28.0265 4.37226C26.1256 2.47137 23.5611 1.38253 20.8733 1.33511L20.5205 21.332ZM13.8844 18.5144C12.1209 16.7509 11.1108 14.3718 11.0668 11.8783L31.0637 11.5255C31.0162 8.83767 29.9274 6.27316 28.0265 4.37226L13.8844 18.5144ZM11.0668 11.8783C11.0228 9.38483 11.9483 6.97155 13.6485 5.14692L28.2807 18.7814C30.1134 16.8146 31.1111 14.2132 31.0637 11.5255L11.0668 11.8783ZM13.893 4.8936L9.65867 9.1286L23.8018 23.2697L28.0362 19.0347L13.893 4.8936ZM9.65867 23.2697L13.893 27.5047L28.0362 13.3636L23.8018 9.1286L9.65867 23.2697Z" fill="#B33B3B" mask="url(#path-2-inside-1_618_1661)"/>
</g>
<defs>
<clipPath id="clip0_618_1661">
<rect width="33" height="33" fill="white"/>
</clipPath>
</defs>
</svg>
