<svg width="27" height="27" viewBox="0 0 27 27" fill="none" xmlns="http://www.w3.org/2000/svg">
<path fill-rule="evenodd" clip-rule="evenodd" d="M13.3333 26.6667C20.6971 26.6667 26.6667 20.6971 26.6667 13.3333C26.6667 5.96953 20.6971 0 13.3333 0C5.96953 0 0 5.96953 0 13.3333C0 20.6971 5.96953 26.6667 13.3333 26.6667ZM8.10149 8.82309C8 9.06812 8 9.37875 8 10V16.6667C8 17.2879 8 17.5985 8.10149 17.8436C8.23681 18.1703 8.49639 18.4299 8.82309 18.5652C9.06812 18.6667 9.37875 18.6667 10 18.6667C10.6213 18.6667 10.9319 18.6667 11.1769 18.5652C11.5036 18.4299 11.7632 18.1703 11.8985 17.8436C12 17.5985 12 17.2879 12 16.6667V10C12 9.37875 12 9.06812 11.8985 8.82309C11.7632 8.49639 11.5036 8.23681 11.1769 8.10149C10.9319 8 10.6213 8 10 8C9.37875 8 9.06812 8 8.82309 8.10149C8.49639 8.23681 8.23681 8.49639 8.10149 8.82309ZM14.7681 8.82309C14.6667 9.06812 14.6667 9.37875 14.6667 10V16.6667C14.6667 17.2879 14.6667 17.5985 14.7681 17.8436C14.9035 18.1703 15.1631 18.4299 15.4897 18.5652C15.7348 18.6667 16.0455 18.6667 16.6667 18.6667C17.2879 18.6667 17.5985 18.6667 17.8436 18.5652C18.1703 18.4299 18.4299 18.1703 18.5652 17.8436C18.6667 17.5985 18.6667 17.2879 18.6667 16.6667V10C18.6667 9.37875 18.6667 9.06812 18.5652 8.82309C18.4299 8.49639 18.1703 8.23681 17.8436 8.10149C17.5985 8 17.2879 8 16.6667 8C16.0455 8 15.7348 8 15.4897 8.10149C15.1631 8.23681 14.9035 8.49639 14.7681 8.82309Z" fill="#2D2D2D" fill-opacity="0.9"/>
</svg>
