<svg width="27" height="27" viewBox="0 0 27 27" fill="none" xmlns="http://www.w3.org/2000/svg">
<path d="M13.3368 0C10.6985 0 8.11957 0.781934 5.92764 2.24707C3.73176 3.71221 2.02561 5.79342 1.01456 8.23005C0.00351059 10.6667 -0.257151 13.3482 0.256273 15.9349C0.769699 18.5216 2.04141 20.899 3.90554 22.763C5.76966 24.627 8.14722 25.8986 10.7341 26.412C13.321 26.9293 16.0026 26.6647 18.4394 25.6538C20.8762 24.6467 22.9575 22.9367 24.4228 20.741C25.888 18.5492 26.67 15.9704 26.67 13.3363C26.67 11.5829 26.3264 9.84921 25.655 8.23005C24.9836 6.61485 24.0041 5.14576 22.764 3.90572C21.5279 2.66568 20.0547 1.68629 18.4394 1.01493C16.8201 0.343577 15.0863 0 13.3368 0ZM12.1756 18.2056C11.5516 18.6716 10.6669 18.2293 10.6669 17.4513V9.21734C10.6669 8.43936 11.5516 7.99705 12.1756 8.46305L17.6653 12.582C18.1669 12.9572 18.1669 13.7115 17.6653 14.0867L12.1756 18.2056Z" fill="#464646"/>
</svg>
