<svg width="42" height="42" viewBox="0 0 42 42" fill="none" xmlns="http://www.w3.org/2000/svg">
<path d="M8.778 7.34204H32.9779C33.7982 7.34204 34.5371 8.08098 34.5371 8.90129V33.1012C34.5371 33.9215 33.7982 34.6604 32.9779 34.6604H8.778C7.95769 34.6604 7.21875 33.9215 7.21875 33.1012V8.90129C7.21875 8.08098 7.95769 7.34204 8.778 7.34204ZM26.6188 22.6812H30.3923L30.5563 19.0719H26.6188V16.4062C26.6188 15.3811 26.8236 14.8062 28.1361 14.8062H30.4329L30.5156 11.4423C30.5156 11.4423 29.4906 11.2782 28.014 11.2782C24.4046 11.2782 22.8047 13.5344 22.8047 15.9547V19.0719H20.139V22.6812H22.8047V32.689H26.6188V22.6812Z" fill="#2D2D2D"/>
</svg>
