<svg width="38" height="38" viewBox="0 0 38 38" fill="none" xmlns="http://www.w3.org/2000/svg">
<path fill-rule="evenodd" clip-rule="evenodd" d="M19 28.5C24.2467 28.5 28.5 24.2467 28.5 19C28.5 13.7533 24.2467 9.5 19 9.5C13.7533 9.5 9.5 13.7533 9.5 19C9.5 24.2467 13.7533 28.5 19 28.5ZM19 25.3333C22.4977 25.3333 25.3333 22.4977 25.3333 19C25.3333 15.5022 22.4977 12.6667 19 12.6667C15.5022 12.6667 12.6667 15.5022 12.6667 19C12.6667 22.4977 15.5022 25.3333 19 25.3333Z" fill="#2D2D2D"/>
<path d="M28.5 7.91675C27.6255 7.91675 26.9166 8.62564 26.9166 9.50008C26.9166 10.3745 27.6255 11.0834 28.5 11.0834C29.3744 11.0834 30.0833 10.3745 30.0833 9.50008C30.0833 8.62564 29.3744 7.91675 28.5 7.91675Z" fill="#2D2D2D"/>
<path fill-rule="evenodd" clip-rule="evenodd" d="M2.61881 6.77035C1.58337 8.80251 1.58337 11.4628 1.58337 16.7833V21.2166C1.58337 26.5371 1.58337 29.1974 2.61881 31.2294C3.52961 33.017 4.98292 34.4704 6.77047 35.3811C8.80263 36.4166 11.4629 36.4166 16.7834 36.4166H21.2167C26.5372 36.4166 29.1975 36.4166 31.2295 35.3811C33.0171 34.4704 34.4705 33.017 35.3812 31.2294C36.4167 29.1974 36.4167 26.5371 36.4167 21.2166V16.7833C36.4167 11.4628 36.4167 8.80251 35.3812 6.77035C34.4705 4.9828 33.0171 3.52949 31.2295 2.61869C29.1975 1.58325 26.5372 1.58325 21.2167 1.58325H16.7834C11.4629 1.58325 8.80263 1.58325 6.77047 2.61869C4.98292 3.52949 3.52961 4.9828 2.61881 6.77035ZM21.2167 4.74992H16.7834C14.0709 4.74992 12.2269 4.75239 10.8017 4.86883C9.41334 4.98226 8.70337 5.18785 8.2081 5.4402C7.01641 6.04741 6.04753 7.01629 5.44033 8.20798C5.18797 8.70325 4.98238 9.41322 4.86895 10.8015C4.75251 12.2268 4.75004 14.0707 4.75004 16.7833V21.2166C4.75004 23.9291 4.75251 25.7729 4.86895 27.1983C4.98238 28.5867 5.18797 29.2966 5.44033 29.7919C6.04753 30.9835 7.01641 31.9524 8.2081 32.5596C8.70337 32.812 9.41334 33.0176 10.8017 33.131C12.2269 33.2474 14.0709 33.2499 16.7834 33.2499H21.2167C23.9293 33.2499 25.7731 33.2474 27.1984 33.131C28.5868 33.0176 29.2968 32.812 29.792 32.5596C30.9837 31.9524 31.9525 30.9835 32.5597 29.7919C32.8121 29.2966 33.0178 28.5867 33.1311 27.1983C33.2475 25.7729 33.25 23.9291 33.25 21.2166V16.7833C33.25 14.0707 33.2475 12.2268 33.1311 10.8015C33.0178 9.41322 32.8121 8.70325 32.5597 8.20798C31.9525 7.01629 30.9837 6.04741 29.792 5.4402C29.2968 5.18785 28.5868 4.98226 27.1984 4.86883C25.7731 4.75239 23.9293 4.74992 21.2167 4.74992Z" fill="#2D2D2D"/>
</svg>
