<svg width="38" height="38" viewBox="0 0 38 38" fill="none" xmlns="http://www.w3.org/2000/svg">
<path d="M31.3975 12.6668C31.3975 12.9359 31.3975 13.2209 31.3975 13.4901C31.4122 15.8812 30.9521 18.2515 30.0439 20.4634C29.1356 22.6753 27.7973 24.6849 26.1065 26.3757C24.4157 28.0666 22.4061 29.4048 20.1942 30.3131C17.9823 31.2213 15.612 31.6815 13.2208 31.6667C9.7409 31.6769 6.33209 30.6817 3.40417 28.8009C3.92667 28.8009 4.41751 28.8009 4.98751 28.8009C7.85882 28.8009 10.6469 27.8363 12.9042 26.0617C11.5662 26.0497 10.2663 25.6143 9.1911 24.8179C8.11589 24.0215 7.32055 22.9049 6.91917 21.6284C7.32237 21.6927 7.73006 21.7245 8.13834 21.7234C8.70383 21.7193 9.26697 21.6503 9.81667 21.5176C8.38615 21.2256 7.10045 20.4483 6.17716 19.3172C5.25387 18.1862 4.74972 16.7709 4.75001 15.3109C5.63523 15.7992 6.62162 16.0757 7.63167 16.1184C6.74045 15.5289 6.01025 14.7265 5.50709 13.7838C5.00396 12.8411 4.74375 11.7878 4.75001 10.7193C4.75199 9.60694 5.04688 8.51475 5.60501 7.55259C7.20691 9.52804 9.20589 11.145 11.4725 12.2987C13.739 13.4525 16.2227 14.1173 18.7625 14.2501C18.662 13.7709 18.6089 13.283 18.6042 12.7934C18.5629 11.4902 18.925 10.2059 19.6408 9.11605C20.3568 8.0262 21.3915 7.18388 22.604 6.70408C23.8164 6.2243 25.1475 6.13044 26.4152 6.43533C27.683 6.74022 28.8257 7.429 29.6875 8.40759C31.1204 8.11976 32.4922 7.58394 33.7409 6.82426C33.264 8.30176 32.2611 9.55264 30.9225 10.3393C32.195 10.2017 33.4391 9.8707 34.6117 9.35759C33.7434 10.6258 32.6738 11.7436 31.445 12.6668H31.3975Z" fill="#2D2D2D"/>
</svg>
