<svg xmlns="http://www.w3.org/2000/svg" width="56" height="40" viewBox="0 0 56 40" fill="none">
<path fill-rule="evenodd" clip-rule="evenodd" d="M22.3676 27.241V11.5279C27.9458 14.1527 32.2661 16.6884 37.3757 19.4221C33.1614 21.7593 27.9458 24.3817 22.3676 27.241ZM53.4548 3.7131C52.4926 2.44537 50.8526 1.45855 49.1067 1.13185C43.9747 0.157307 11.9588 0.154535 6.82963 1.13185C5.4295 1.39432 4.18274 2.02875 3.11173 3.01446C-1.40102 7.20298 0.0130653 29.6647 1.10081 33.3031C1.55822 34.878 2.14953 36.0138 2.89422 36.7594C3.85367 37.7451 5.16731 38.4238 6.6762 38.7281C10.9017 39.6022 32.6705 40.0908 49.0174 38.8594C50.5235 38.5969 51.8566 37.8964 52.9081 36.8688C57.0806 32.697 56.7962 8.97388 53.4548 3.7131Z" fill="#B33B3B"/>
</svg>