<svg width="120" height="120" viewBox="0 0 120 120" fill="none" xmlns="http://www.w3.org/2000/svg">
<g clip-path="url(#clip0_31_15)">
<path fill-rule="evenodd" clip-rule="evenodd" d="M95.4 53.4C76.2 42 44.1 40.8 25.8 46.5C22.8 47.4 19.8 45.6 18.9 42.9C18 39.9 19.8 36.9 22.5 36C43.8 29.7 78.9 30.9 101.1 44.1C103.8 45.6 104.7 49.2 103.2 51.9C101.7 54 98.1 54.9 95.4 53.4ZM94.8 70.2C93.3 72.3 90.6 73.2 88.5 71.7C72.3 61.8 47.7 58.8 28.8 64.8C26.4 65.4 23.7 64.2 23.1 61.8C22.5 59.4 23.7 56.7 26.1 56.1C48 49.5 75 52.8 93.6 64.2C95.4 65.1 96.3 68.1 94.8 70.2ZM87.6 86.7C86.4 88.5 84.3 89.1 82.5 87.9C68.4 79.2 50.7 77.4 29.7 82.2C27.6 82.8 25.8 81.3 25.2 79.5C24.6 77.4 26.1 75.6 27.9 75C50.7 69.9 70.5 72 86.1 81.6C88.2 82.5 88.5 84.9 87.6 86.7ZM60 0C27 0 0 27 0 60C0 93 27 120 60 120C93 120 120 93 120 60C120 27 93.3 0 60 0Z" fill="#00DA5A"/>
</g>
<defs>
<clipPath id="clip0_31_15">
<rect width="120" height="120" fill="white"/>
</clipPath>
</defs>
</svg>
