<svg width="126" height="126" viewBox="0 0 126 126" fill="none" xmlns="http://www.w3.org/2000/svg">
<g clip-path="url(#clip0_31_19)">
<path fill-rule="evenodd" clip-rule="evenodd" d="M49.9905 79.4586L49.9865 43.8053L84.0302 61.6934L49.9905 79.4586ZM124.74 37.6272C124.74 37.6272 123.508 28.8834 119.731 25.033C114.94 19.9771 109.569 19.9532 107.108 19.6598C89.4757 18.375 63.0276 18.375 63.0276 18.375H62.9724C62.9724 18.375 36.5243 18.375 18.8921 19.6598C16.4273 19.9532 11.0605 19.9771 6.26458 25.033C2.48851 28.8834 1.25999 37.6272 1.25999 37.6272C1.25999 37.6272 0 47.8977 0 58.1642V67.7923C0 78.0627 1.25999 88.3292 1.25999 88.3292C1.25999 88.3292 2.48851 97.073 6.26458 100.923C11.0605 105.979 17.3565 105.821 20.16 106.348C30.24 107.324 63 107.625 63 107.625C63 107.625 89.4757 107.585 107.108 106.301C109.569 106.003 114.94 105.979 119.731 100.923C123.508 97.073 124.74 88.3292 124.74 88.3292C124.74 88.3292 126 78.0627 126 67.7923V58.1642C126 47.8977 124.74 37.6272 124.74 37.6272Z" fill="#CE1312"/>
</g>
<defs>
<clipPath id="clip0_31_19">
<rect width="126" height="126" fill="white"/>
</clipPath>
</defs>
</svg>
