<svg width="105" height="101" viewBox="0 0 105 101" fill="none" xmlns="http://www.w3.org/2000/svg">
<g clip-path="url(#clip0_11_111)">
<path fill-rule="evenodd" clip-rule="evenodd" d="M22.8515 33.5961C24.1187 34.1971 24.642 35.6775 24.0205 36.9027C20.4621 43.9178 19.6771 52.2384 22.5044 60.2098C25.3649 68.2745 31.3712 74.4274 38.7502 77.8308C40.0241 78.4184 40.5641 79.8931 39.9565 81.1248C39.3489 82.3566 37.8237 82.8788 36.5498 82.2911C27.9826 78.3399 20.9938 71.1845 17.6699 61.813C14.3846 52.5503 15.3002 42.8716 19.4319 34.7265C20.0534 33.5013 21.5844 32.9952 22.8515 33.5961ZM65.3125 19.7674C65.9453 18.5475 67.4808 18.0548 68.7424 18.6666C77.0089 22.6763 83.7263 29.7037 86.9645 38.8335C90.2413 48.0723 89.3391 57.7248 85.2349 65.8564C84.6159 67.0829 83.0859 67.5921 81.8178 66.9934C80.5494 66.3949 80.0228 64.9155 80.6418 63.689C84.1765 56.6855 84.95 48.3875 82.13 40.4368C79.3431 32.5793 73.5699 26.5371 66.451 23.0839C65.1894 22.4721 64.6796 20.9872 65.3125 19.7674ZM35.434 40.2052C36.6805 40.8452 37.1544 42.3411 36.4925 43.5465C34.4157 47.328 33.9044 51.7279 35.3768 55.879C36.8662 60.0785 40.1205 63.275 44.2276 65.015C45.5203 65.5626 46.109 67.0197 45.5427 68.2699C44.9763 69.5197 43.4692 70.0891 42.1765 69.5415C36.8659 67.2915 32.5321 63.0925 30.5423 57.4823C28.5756 51.9374 29.2916 46.1212 31.9786 41.2287C32.6405 40.0234 34.1875 39.5651 35.434 40.2052ZM59.4348 32.3785C60.0267 31.1396 61.545 30.5994 62.8264 31.1717C67.9508 33.4608 72.1145 37.5883 74.0528 43.0533C76.0144 48.5838 75.3071 54.3842 72.6374 59.2687C71.9783 60.4754 70.432 60.9366 69.1842 60.2989C67.9365 59.6612 67.4596 58.1663 68.1188 56.9599C70.182 53.1848 70.6869 48.797 69.2183 44.6565C67.767 40.5646 64.6406 37.4261 60.6827 35.6581C59.4015 35.0857 58.8429 33.6173 59.4348 32.3785Z" fill="#4600FF"/>
<path d="M55.9435 43.7262C59.5575 44.8182 61.3645 45.3641 61.9863 47.1171C62.6079 48.8698 61.5278 50.3732 59.3676 53.3804C58.7715 54.2102 58.1698 55.005 57.6009 55.69C57.1017 56.2906 56.523 56.9328 55.9159 57.5762C53.5764 60.0555 52.4063 61.2951 50.8157 60.8798C49.2245 60.4642 48.4807 58.7367 46.9931 55.2817C46.5723 54.3046 46.1827 53.3391 45.8713 52.4612C45.5598 51.583 45.2546 50.5895 44.9666 49.5683C43.9482 45.9577 43.439 44.1524 44.4315 42.8802C45.4237 41.6082 47.1344 41.8926 50.5551 42.4618C51.4428 42.6094 52.3073 42.7729 53.0826 42.951C53.9665 43.154 54.946 43.4245 55.9435 43.7262Z" fill="#4600FF"/>
</g>
<defs>
<clipPath id="clip0_11_111">
<rect width="81.4944" height="79.3603" fill="white" transform="matrix(0.94917 -0.314763 0.334279 0.942474 0.376953 25.7515)"/>
</clipPath>
</defs>
</svg>
