<svg width="622" height="658" viewBox="0 0 622 658" fill="none" xmlns="http://www.w3.org/2000/svg">
<path style="mix-blend-mode:multiply" d="M595.766 532.062C611.251 506.171 621.022 476.246 621.391 445.797C621.686 420.094 615.455 394.689 604.357 371.414C601.112 364.651 596.982 358.151 592.336 351.762C570.435 321.463 538.173 293.929 521.359 259.035C500.675 216.033 492.342 173.181 470.956 134.626C426.637 54.6005 350.24 7.11587 315.544 1.96018C287.264 -2.22414 258.283 4.61275 232.363 16.3812C200.063 31.0637 171.525 52.994 145.9 78.2494C131.114 92.8198 117.14 108.362 104.124 124.501C77.4297 157.565 54.2008 193.43 36.1708 231.986C8.99668 290.043 -6.15739 355.274 2.39673 418.973C4.57213 435 8.25926 450.916 14.3799 465.785C21.9016 484.129 32.963 500.679 45.1674 516.072C62.2019 537.516 81.633 556.495 102.76 573.046C176.429 630.842 271.852 660.505 366.721 656.882C484.562 652.361 560.848 590.493 595.766 532.024V532.062Z" fill="url(#paint0_linear_310_17)"/>
<defs>
<linearGradient id="paint0_linear_310_17" x1="376.061" y1="663.435" x2="199.274" y2="23.0297" gradientUnits="userSpaceOnUse">
<stop stop-color="#FFF200"/>
<stop offset="1" stop-color="#8C0F7A"/>
</linearGradient>
</defs>
</svg>
