<svg width="653" height="595" viewBox="0 0 653 595" fill="none" xmlns="http://www.w3.org/2000/svg">
<path style="mix-blend-mode:multiply" d="M525.728 496.482C635.051 414.402 656.805 312.633 651.495 252.259C649.357 227.826 643.126 203.317 630.036 182.695C615.657 160.055 593.755 143.28 570.416 130.391C508.73 96.281 436.794 87.2398 371.016 62.1712C331.969 47.3019 295.135 26.7913 255.609 13.379C216.046 -0.0332336 172.022 -5.89876 133.049 9.08262C101.192 21.3367 75.4191 46.6668 57.3891 75.9571C39.3959 105.247 28.5558 138.498 20.0754 171.935C5.10565 230.852 -3.07977 292.085 2.56153 352.646C8.20283 413.206 28.2977 473.206 65.5007 520.953C75.9722 534.402 87.8447 546.918 101.782 556.669C118.927 568.699 138.764 576.283 158.822 581.999C284.59 618.014 420.755 575.237 525.764 496.407L525.728 496.482Z" fill="url(#paint0_linear_310_18)"/>
<defs>
<linearGradient id="paint0_linear_310_18" x1="492.912" y1="99.3071" x2="32.8076" y2="506.746" gradientUnits="userSpaceOnUse">
<stop stop-color="#F14D1A"/>
<stop offset="1" stop-color="#8C0F7A"/>
</linearGradient>
</defs>
</svg>
