<svg width="258" height="50" viewBox="0 0 258 50" fill="none" xmlns="http://www.w3.org/2000/svg">
<path d="M226.423 6.34821C224.343 6.34821 222.682 7.35387 222.682 8.60884V40.4945C222.682 41.7369 224.343 42.7404 226.423 42.7404C228.491 42.7404 230.152 41.7369 230.152 40.4945V8.60884C230.152 7.35596 228.491 6.34821 226.423 6.34821Z" fill="#D0D0D0"/>
<path d="M156.827 10.7458C154.76 10.7458 153.099 11.762 153.099 13.0065V36.0863C153.099 37.3413 154.76 38.3428 156.827 38.3428C158.907 38.3428 160.569 37.3392 160.569 36.0863V13.0065C160.565 11.7641 158.907 10.7458 156.827 10.7458Z" fill="#D0D0D0"/>
<path d="M212.507 10.0817C210.427 10.0817 208.766 11.0853 208.766 12.3298V36.761C208.766 38.0034 210.427 39.009 212.507 39.009C214.575 39.009 216.236 38.0034 216.236 36.761V12.3298C216.236 11.0832 214.575 10.0817 212.507 10.0817Z" fill="#D0D0D0"/>
<path d="M184.656 13.7167C182.592 13.7167 180.934 14.7203 180.934 15.9732V33.1175C180.934 34.3725 182.595 35.3782 184.656 35.3782C186.74 35.3782 188.401 34.3725 188.401 33.1175V15.9732C188.401 14.7182 186.74 13.7167 184.656 13.7167Z" fill="#D0D0D0"/>
<path d="M198.572 14.3704C196.508 14.3704 194.85 15.3761 194.85 16.6185V32.4639C194.85 33.7189 196.511 34.7203 198.572 34.7203C200.655 34.7203 202.317 33.7168 202.317 32.4639V16.6185C202.317 15.3761 200.659 14.3704 198.572 14.3704Z" fill="#D0D0D0"/>
<path d="M240.343 10.0817C242.41 10.0817 244.084 11.0853 244.084 12.3298V36.761C244.084 38.0034 242.41 39.009 240.343 39.009C238.278 39.009 236.601 38.0034 236.601 36.761V12.3298C236.601 11.0832 238.278 10.0817 240.343 10.0817Z" fill="#D0D0D0"/>
<path d="M254.258 14.3704C256.326 14.3704 258 15.3761 258 16.6185V32.4639C258 33.7189 256.326 34.7203 254.258 34.7203C252.194 34.7203 250.517 33.7168 250.517 32.4639V16.6185C250.517 15.3761 252.194 14.3704 254.258 14.3704Z" fill="#D0D0D0"/>
<path d="M128.992 0C126.925 0 125.263 1.00356 125.263 2.25644V46.8322C125.263 48.0788 126.925 49.0928 128.992 49.0928C131.072 49.0928 132.733 48.0788 132.733 46.8322V2.25644C132.733 1.00147 131.072 0 128.992 0Z" fill="#D0D0D0"/>
<path d="M142.908 5.60864C140.84 5.60864 139.179 6.6122 139.179 7.86509V41.2257C139.179 42.4681 140.84 43.4821 142.908 43.4821C144.988 43.4821 146.649 42.4681 146.649 41.2257V7.86718C146.649 6.6122 144.988 5.60864 142.908 5.60864Z" fill="#D0D0D0"/>
<path d="M31.5735 6.34821C33.6409 6.34821 35.315 7.35387 35.315 8.60884V40.4945C35.315 41.7369 33.6409 42.7404 31.5735 42.7404C29.4931 42.7404 27.832 41.7369 27.832 40.4945V8.60884C27.832 7.35596 29.4931 6.34821 31.5735 6.34821Z" fill="#D0D0D0"/>
<path d="M115.076 5.60864C117.14 5.60864 118.817 6.6122 118.817 7.86509V41.2257C118.817 42.4681 117.14 43.4821 115.076 43.4821C113.008 43.4821 111.334 42.4681 111.334 41.2257V7.86718C111.334 6.6122 113.008 5.60864 115.076 5.60864Z" fill="#D0D0D0"/>
<path d="M101.157 10.7458C103.221 10.7458 104.898 11.762 104.898 13.0065V36.0863C104.898 37.3413 103.221 38.3428 101.157 38.3428C99.0892 38.3428 97.4152 37.3392 97.4152 36.0863V13.0065C97.4184 11.7641 99.0892 10.7458 101.157 10.7458Z" fill="#D0D0D0"/>
<path d="M45.4895 10.0817C47.5569 10.0817 49.2309 11.0853 49.2309 12.3298V36.761C49.2309 38.0034 47.5569 39.009 45.4895 39.009C43.4253 39.009 41.748 38.0034 41.748 36.761V12.3298C41.748 11.0832 43.4253 10.0817 45.4895 10.0817Z" fill="#D0D0D0"/>
<path d="M73.3247 13.7167C75.3921 13.7167 77.0662 14.7203 77.0662 15.9732V33.1175C77.0662 34.3725 75.3921 35.3782 73.3247 35.3782C71.2573 35.3782 69.5832 34.3725 69.5832 33.1175V15.9732C69.5832 14.7182 71.2573 13.7167 73.3247 13.7167Z" fill="#D0D0D0"/>
<path d="M59.4055 14.3704C61.4729 14.3704 63.1469 15.3761 63.1469 16.6185V32.4639C63.1469 33.7189 61.4729 34.7203 59.4055 34.7203C57.338 34.7203 55.664 33.7168 55.664 32.4639V16.6185C55.6672 15.3761 57.338 14.3704 59.4055 14.3704Z" fill="#D0D0D0"/>
<path d="M87.2407 18.1689C89.3049 18.1689 90.9822 19.1724 90.9822 20.4148V28.6759C90.9822 29.9225 89.3049 30.924 87.2407 30.924C85.1733 30.924 83.4992 29.9204 83.4992 28.6759V20.4148C83.4992 19.1724 85.1733 18.1689 87.2407 18.1689Z" fill="#D0D0D0"/>
<path d="M17.6542 10.0817C15.5738 10.0817 13.9128 11.0853 13.9128 12.3298V36.761C13.9128 38.0034 15.5738 39.009 17.6542 39.009C19.7217 39.009 21.3827 38.0034 21.3827 36.761V12.3298C21.3827 11.0832 19.7217 10.0817 17.6542 10.0817Z" fill="#D0D0D0"/>
<path d="M3.72198 14.3704C1.65783 14.3704 0 15.3761 0 16.6185V32.4639C0 33.7189 1.66108 34.7203 3.72198 34.7203C5.80564 34.7203 7.46672 33.7168 7.46672 32.4639V16.6185C7.46672 15.3761 5.80564 14.3704 3.72198 14.3704Z" fill="#D0D0D0"/>
<path d="M170.743 18.1689C172.824 18.1689 174.485 19.1724 174.485 20.4148V28.6759C174.485 29.9225 172.824 30.924 170.743 30.924C168.676 30.924 167.015 29.9204 167.015 28.6759V20.4148C167.015 19.1724 168.676 18.1689 170.743 18.1689Z" fill="#D0D0D0"/>
</svg>
